<svg width="16" height="16" viewBox="0 0 16 16" fill="none" xmlns="http://www.w3.org/2000/svg">
<g clip-path="url(#clip0_1_1257)">
<path d="M8.00088 4.75397C7.57461 4.75397 7.15252 4.83793 6.75869 5.00105C6.36487 5.16418 6.00703 5.40328 5.70561 5.7047C5.4042 6.00612 5.1651 6.36395 5.00197 6.75778C4.83884 7.1516 4.75488 7.5737 4.75488 7.99997C4.75488 8.42624 4.83884 8.84833 5.00197 9.24216C5.1651 9.63598 5.4042 9.99382 5.70561 10.2952C6.00703 10.5967 6.36487 10.8358 6.75869 10.9989C7.15252 11.162 7.57461 11.246 8.00088 11.246C8.86178 11.246 9.68741 10.904 10.2962 10.2952C10.9049 9.68649 11.2469 8.86086 11.2469 7.99997C11.2469 7.13907 10.9049 6.31344 10.2962 5.7047C9.68741 5.09596 8.86178 4.75397 8.00088 4.75397ZM5.75488 7.99997C5.75488 7.40429 5.99151 6.83301 6.41272 6.41181C6.83393 5.9906 7.40521 5.75397 8.00088 5.75397C8.59656 5.75397 9.16784 5.9906 9.58904 6.41181C10.0103 6.83301 10.2469 7.40429 10.2469 7.99997C10.2469 8.59564 10.0103 9.16692 9.58904 9.58813C9.16784 10.0093 8.59656 10.246 8.00088 10.246C7.40521 10.246 6.83393 10.0093 6.41272 9.58813C5.99151 9.16692 5.75488 8.59564 5.75488 7.99997Z" fill="#101828"/>
<path d="M9.79648 1.34299C9.26948 -0.447012 6.73148 -0.447012 6.20448 1.34299L6.11048 1.66199C6.07367 1.78694 6.00937 1.90207 5.92229 1.99895C5.83521 2.09582 5.72756 2.17198 5.60722 2.22184C5.48688 2.2717 5.35691 2.294 5.22683 2.28711C5.09675 2.28021 4.96987 2.24429 4.85548 2.18199L4.56348 2.02199C2.92348 1.12999 1.13048 2.92399 2.02348 4.56299L2.18248 4.85499C2.24478 4.96938 2.2807 5.09627 2.28759 5.22634C2.29449 5.35642 2.27219 5.48639 2.22233 5.60673C2.17247 5.72707 2.09631 5.83472 1.99943 5.9218C1.90256 6.00889 1.78743 6.07318 1.66248 6.10999L1.34348 6.20399C-0.446523 6.73099 -0.446523 9.26899 1.34348 9.79599L1.66248 9.88999C1.78743 9.92679 1.90256 9.99109 1.99943 10.0782C2.09631 10.1653 2.17247 10.2729 2.22233 10.3932C2.27219 10.5136 2.29449 10.6436 2.28759 10.7736C2.2807 10.9037 2.24478 11.0306 2.18248 11.145L2.02248 11.437C1.13048 13.077 2.92348 14.871 4.56348 13.977L4.85548 13.818C4.96987 13.7557 5.09675 13.7198 5.22683 13.7129C5.35691 13.706 5.48688 13.7283 5.60722 13.7781C5.72756 13.828 5.83521 13.9042 5.92229 14.001C6.00937 14.0979 6.07367 14.213 6.11048 14.338L6.20448 14.657C6.73148 16.447 9.26948 16.447 9.79648 14.657L9.89048 14.338C9.92728 14.213 9.99158 14.0979 10.0787 14.001C10.1657 13.9042 10.2734 13.828 10.3937 13.7781C10.5141 13.7283 10.644 13.706 10.7741 13.7129C10.9042 13.7198 11.0311 13.7557 11.1455 13.818L11.4375 13.978C13.0775 14.871 14.8715 13.076 13.9775 11.437L13.8185 11.145C13.7562 11.0306 13.7203 10.9037 13.7134 10.7736C13.7065 10.6436 13.7288 10.5136 13.7786 10.3932C13.8285 10.2729 13.9046 10.1653 14.0015 10.0782C14.0984 9.99109 14.2135 9.92679 14.3385 9.88999L14.6575 9.79599C16.4475 9.26899 16.4475 6.73099 14.6575 6.20399L14.3385 6.10999C14.2135 6.07318 14.0984 6.00889 14.0015 5.9218C13.9046 5.83472 13.8285 5.72707 13.7786 5.60673C13.7288 5.48639 13.7065 5.35642 13.7134 5.22634C13.7203 5.09627 13.7562 4.96938 13.8185 4.85499L13.9785 4.56299C14.8715 2.92299 13.0765 1.12999 11.4375 2.02299L11.1455 2.18199C11.0311 2.24429 10.9042 2.28021 10.7741 2.28711C10.644 2.294 10.5141 2.2717 10.3937 2.22184C10.2734 2.17198 10.1657 2.09582 10.0787 1.99895C9.99158 1.90207 9.92728 1.78694 9.89048 1.66199L9.79648 1.34299ZM7.16348 1.62599C7.40948 0.790988 8.59148 0.790988 8.83748 1.62599L8.93148 1.94499C9.0105 2.21307 9.14851 2.46008 9.3354 2.66789C9.52229 2.8757 9.75332 3.03905 10.0116 3.14597C10.2698 3.25288 10.5487 3.30066 10.8278 3.28578C11.1069 3.2709 11.3791 3.19375 11.6245 3.05999L11.9155 2.89999C12.6795 2.48499 13.5155 3.31999 13.0995 4.08499L12.9405 4.37699C12.8069 4.62242 12.73 4.89462 12.7152 5.17364C12.7005 5.45267 12.7484 5.73146 12.8554 5.98957C12.9624 6.24769 13.1258 6.47859 13.3336 6.66536C13.5415 6.85214 13.7884 6.99005 14.0565 7.06899L14.3745 7.16299C15.2095 7.40899 15.2095 8.59099 14.3745 8.83699L14.0555 8.93099C13.7874 9.01001 13.5404 9.14802 13.3326 9.33491C13.1248 9.5218 12.9614 9.75283 12.8545 10.0111C12.7476 10.2693 12.6998 10.5482 12.7147 10.8273C12.7296 11.1064 12.8067 11.3786 12.9405 11.624L13.1005 11.915C13.5155 12.679 12.6805 13.515 11.9155 13.099L11.6245 12.94C11.379 12.8062 11.1067 12.7291 10.8276 12.7143C10.5484 12.6995 10.2695 12.7474 10.0113 12.8544C9.75301 12.9614 9.522 13.1249 9.33516 13.3328C9.14831 13.5407 9.01038 13.7878 8.93148 14.056L8.83748 14.374C8.59148 15.209 7.40948 15.209 7.16348 14.374L7.06948 14.055C6.99042 13.787 6.85243 13.5402 6.66561 13.3325C6.47879 13.1248 6.24787 12.9615 5.98977 12.8546C5.73166 12.7477 5.45292 12.6999 5.17394 12.7146C4.89497 12.7294 4.62284 12.8064 4.37748 12.94L4.08548 13.1C3.32148 13.515 2.48548 12.68 2.90148 11.915L3.06048 11.624C3.19443 11.3785 3.27173 11.1062 3.2867 10.827C3.30168 10.5478 3.25395 10.2688 3.14702 10.0104C3.04009 9.75207 2.87667 9.52093 2.66876 9.33397C2.46084 9.14701 2.2137 9.00897 1.94548 8.92999L1.62648 8.83599C0.791477 8.58999 0.791477 7.40799 1.62648 7.16199L1.94548 7.06799C2.21328 6.9889 2.46002 6.85093 2.66762 6.66418C2.87522 6.47742 3.03844 6.24662 3.14533 5.98864C3.25222 5.73067 3.30007 5.45206 3.28539 5.17321C3.27071 4.89435 3.19386 4.62231 3.06048 4.37699L2.90048 4.08499C2.48548 3.32099 3.32048 2.48499 4.08548 2.90099L4.37748 3.05999C4.62284 3.19356 4.89497 3.27056 5.17394 3.28534C5.45292 3.30012 5.73166 3.25231 5.98977 3.1454C6.24787 3.0385 6.47879 2.87522 6.66561 2.66751C6.85243 2.4598 6.99042 2.21293 7.06948 1.94499L7.16348 1.62599Z" fill="#101828"/>
</g>
<defs>
<clipPath id="clip0_1_1257">
<rect width="16" height="16" fill="white"/>
</clipPath>
</defs>
</svg>
