<svg width="16" height="16" viewBox="0 0 16 16" fill="none" xmlns="http://www.w3.org/2000/svg">
<path d="M11.5306 8.38125C11.0394 9.37687 10.3738 10.3688 9.69313 11.2594C9.04677 12.0984 8.35642 12.9027 7.625 13.6687C6.89358 12.9027 6.20324 12.0984 5.55688 11.2594C4.87625 10.3688 4.21063 9.37687 3.71938 8.38125C3.2225 7.37531 2.9375 6.43313 2.9375 5.625C2.9375 4.3818 3.43136 3.18951 4.31044 2.31044C5.18951 1.43136 6.3818 0.9375 7.625 0.9375C8.8682 0.9375 10.0605 1.43136 10.9396 2.31044C11.8186 3.18951 12.3125 4.3818 12.3125 5.625C12.3125 6.43313 12.0266 7.37531 11.5306 8.38125ZM7.625 15C7.625 15 13.25 9.66938 13.25 5.625C13.25 4.13316 12.6574 2.70242 11.6025 1.64752C10.5476 0.592632 9.11684 0 7.625 0C6.13316 0 4.70242 0.592632 3.64752 1.64752C2.59263 2.70242 2 4.13316 2 5.625C2 9.66938 7.625 15 7.625 15Z" fill="#101828"/>
<path d="M7.625 7.5C7.12772 7.5 6.65081 7.30246 6.29917 6.95083C5.94754 6.59919 5.75 6.12228 5.75 5.625C5.75 5.12772 5.94754 4.65081 6.29917 4.29917C6.65081 3.94754 7.12772 3.75 7.625 3.75C8.12228 3.75 8.59919 3.94754 8.95082 4.29917C9.30246 4.65081 9.5 5.12772 9.5 5.625C9.5 6.12228 9.30246 6.59919 8.95082 6.95083C8.59919 7.30246 8.12228 7.5 7.625 7.5ZM7.625 8.4375C8.37092 8.4375 9.08629 8.14118 9.61374 7.61374C10.1412 7.08629 10.4375 6.37092 10.4375 5.625C10.4375 4.87908 10.1412 4.16371 9.61374 3.63626C9.08629 3.10882 8.37092 2.8125 7.625 2.8125C6.87908 2.8125 6.16371 3.10882 5.63626 3.63626C5.10882 4.16371 4.8125 4.87908 4.8125 5.625C4.8125 6.37092 5.10882 7.08629 5.63626 7.61374C6.16371 8.14118 6.87908 8.4375 7.625 8.4375Z" fill="#101828"/>
</svg>
